<svg xmlns="http://www.w3.org/2000/svg" xmlns:xlink="http://www.w3.org/1999/xlink" id="Layer_1" x="0px" y="0px" viewBox="0 0 1700 1200" style="enable-background:new 0 0 1700 1200;" xml:space="preserve">
<style type="text/css">
	.st0{fill:#F2F6FB;}
	.st1{fill:#D8DEED;}
	.st2{fill:#E1E5F0;}
	.st3{fill:#806BFF;}
	.st4{fill:#FF5645;}
	.st5{fill:#FFCB3D;}
	.st6{fill:#3ABF7C;}
	.st7{fill:#474961;}
	.st8{opacity:0.177;fill:#444444;enable-background:new    ;}
	.st9{fill:#482D1F;}
	.st10{fill:#FF8A48;}
	.st11{fill:#BF865F;}
	.st12{opacity:0.2;fill:#8C2A00;enable-background:new    ;}
	.st13{fill:#6D60EF;}
	.st14{fill:#FFD600;}
	.st15{fill:#F2A98A;}
</style>
<g id="Hirerring">
	<g id="UI-_x2F_-Users-_x2F_-User-2-_x2F_-1" transform="translate(360.000000, 85.000000)">
		<g id="Users">
			<g id="Browser">
				<g id="Background">
					<path class="st0" d="M-64.63-75.06h446.58c3.83,0,6.94,3.11,6.94,6.94v338.98c0,3.83-3.11,6.94-6.94,6.94H-64.63       c-3.83,0-6.94-3.11-6.94-6.94V-68.12C-71.57-71.96-68.46-75.06-64.63-75.06z"></path>
				</g>
			</g>
			<g id="User-1" transform="translate(51.025641, 87.030848)">
				<ellipse id="Oval" class="st1" cx="-20.54" cy="-20.78" rx="40.88" ry="40.63"></ellipse>
				<g id="Icons-_x2F_-User" transform="translate(20.455114, 16.634750)">
					<path id="Combined-Shape" class="st0" d="M-41.01-37.99c-5.86,0-10.61-4.66-10.61-10.4s4.75-10.4,10.61-10.4       s10.61,4.66,10.61,10.4S-35.15-37.99-41.01-37.99z M-41.01-32.79c10.62,0,19.23,8.44,19.23,18.86h-38.46       C-60.24-24.35-51.63-32.79-41.01-32.79z"></path>
				</g>
				<g id="Text" transform="translate(0.000000, 79.477138)">
					<path class="st2" d="M-55.01-48.93h68.95c4.72,0,8.55,3.83,8.55,8.55s-3.83,8.55-8.55,8.55h-68.95c-4.72,0-8.55-3.83-8.55-8.55       S-59.73-48.93-55.01-48.93z M-44.25-21.14H3.18c4.72,0,8.55,3.83,8.55,8.55S7.9-4.03,3.18-4.03h-47.43       c-4.72,0-8.55-3.83-8.55-8.55S-48.98-21.14-44.25-21.14z"></path>
				</g>
				<g id="Button" transform="translate(0.000000, 142.361128)">
					<g id="Buttons">
						<path class="st3" d="M-48.6-38.58H7.52c8.27,0,14.97,6.7,14.97,14.97S15.79-8.64,7.52-8.64H-48.6        c-8.27,0-14.97-6.7-14.97-14.97S-56.86-38.58-48.6-38.58z M79.46-38.58h56.12c8.27,0,14.97,6.7,14.97,14.97        s-6.7,14.97-14.97,14.97H79.46c-8.27,0-14.97-6.7-14.97-14.97S71.19-38.58,79.46-38.58z M208.43-38.58h56.12        c8.27,0,14.97,6.7,14.97,14.97s-6.7,14.97-14.97,14.97h-56.12c-8.27,0-14.97-6.7-14.97-14.97S200.16-38.58,208.43-38.58z"></path>
					</g>
				</g>
			</g>
			<g id="User-2" transform="translate(161.712032, 87.030848)">
				<ellipse id="Oval_1_" class="st1" cx="-3.17" cy="-20.78" rx="40.88" ry="40.63"></ellipse>
				<g id="Icons-_x2F_-User_1_" transform="translate(20.455114, 16.634750)">
					<path id="Combined-Shape_1_" class="st0" d="M-23.64-37.99c-5.86,0-10.61-4.66-10.61-10.4s4.75-10.4,10.61-10.4       s10.61,4.66,10.61,10.4S-17.78-37.99-23.64-37.99z M-23.64-32.79c10.62,0,19.23,8.44,19.23,18.86h-38.46       C-42.87-24.35-34.26-32.79-23.64-32.79z"></path>
				</g>
				<g id="Text_1_" transform="translate(0.000000, 79.477138)">
					<path class="st2" d="M-37.64-48.93h68.95c4.72,0,8.55,3.83,8.55,8.55s-3.83,8.55-8.55,8.55h-68.95c-4.72,0-8.55-3.83-8.55-8.55       S-42.36-48.93-37.64-48.93z M-37.64-21.14h68.95c4.72,0,8.55,3.83,8.55,8.55s-3.83,8.55-8.55,8.55h-68.95       c-4.72,0-8.55-3.83-8.55-8.55S-42.36-21.14-37.64-21.14z"></path>
				</g>
				<g id="Button_1_" transform="translate(0.000000, 142.361128)">
				</g>
			</g>
			<g id="User-3" transform="translate(273.183432, 87.030848)">
				<ellipse id="Oval_2_" class="st1" cx="14.33" cy="-20.78" rx="40.88" ry="40.63"></ellipse>
				<g id="Icons-_x2F_-User_2_" transform="translate(20.455114, 16.634750)">
					<path id="Combined-Shape_2_" class="st0" d="M-6.15-37.99c-5.86,0-10.61-4.66-10.61-10.4s4.75-10.4,10.61-10.4       s10.61,4.66,10.61,10.4S-0.29-37.99-6.15-37.99z M-6.15-32.79c10.62,0,19.23,8.44,19.23,18.86h-38.46       C-25.38-24.35-16.77-32.79-6.15-32.79z"></path>
				</g>
				<g id="Text_2_" transform="translate(0.000000, 79.477138)">
					<path class="st2" d="M-9.39-48.93h47.43c4.72,0,8.55,3.83,8.55,8.55s-3.83,8.55-8.55,8.55H-9.39c-4.72,0-8.55-3.83-8.55-8.55       S-14.11-48.93-9.39-48.93z M-20.15-21.14H48.8c4.72,0,8.55,3.83,8.55,8.55s-3.83,8.55-8.55,8.55h-68.95       c-4.72,0-8.55-3.83-8.55-8.55S-24.87-21.14-20.15-21.14z"></path>
				</g>
				<g id="Button_2_" transform="translate(0.000000, 142.361128)">
				</g>
			</g>
		</g>
		<path id="Top-bar" class="st1" d="M-71.57-55.11c0-11.02,8.94-19.96,19.95-19.96h420.56c11.02,0,19.95,8.93,19.95,19.96v19.96    H-71.57V-55.11z"></path>
		<ellipse id="Burron" class="st4" cx="-44.78" cy="-54.65" rx="8.63" ry="8.62"></ellipse>
		<ellipse id="Burron_1_" class="st5" cx="-16.63" cy="-54.65" rx="8.63" ry="8.62"></ellipse>
		<ellipse id="Burron_2_" class="st6" cx="12.44" cy="-54.65" rx="8.63" ry="8.62"></ellipse>
	</g>
	<g id="UI-_x2F_-Users-_x2F_-User-5" transform="translate(599.000000, 280.000000)">
		<g id="User-info" transform="translate(124.000000, 0.000000)">
			<path id="Background_1_" class="st2" d="M8.53-44.46h283.45c12.78,0,23.14,10.36,23.14,23.14v311.21     c0,12.78-10.36,23.14-23.14,23.14H8.53c-12.78,0-23.14-10.36-23.14-23.14V-21.32C-14.61-34.1-4.25-44.46,8.53-44.46z"></path>
			<g id="Text-" transform="translate(37.000000, 203.843844)">
				<path id="Text_3_" class="st0" d="M-2.81-12.47h232.32c3.31,0,5.99,2.68,5.99,5.99s-2.68,5.99-5.99,5.99H-2.81      c-3.31,0-5.99-2.68-5.99-5.99S-6.12-12.47-2.81-12.47z M-2.81,26.46h232.32c3.31,0,5.99,2.68,5.99,5.99      c0,3.31-2.68,5.99-5.99,5.99H-2.81c-3.31,0-5.99-2.68-5.99-5.99C-8.8,29.14-6.12,26.46-2.81,26.46z M28.66,6.99h169.37      c3.31,0,5.99,2.68,5.99,5.99s-2.68,5.99-5.99,5.99H28.66c-3.31,0-5.99-2.68-5.99-5.99S25.36,6.99,28.66,6.99z M43.65,45.93      h139.39c3.31,0,5.99,2.68,5.99,5.99c0,3.31-2.68,5.99-5.99,5.99H43.65c-3.31,0-5.99-2.68-5.99-5.99      C37.66,48.61,40.34,45.93,43.65,45.93z"></path>
			</g>
			<g id="ElUserpic" transform="translate(106.954545, 38.000000)">
				<g id="Userpic">
					<ellipse id="Oval_3_" class="st3" cx="42.65" cy="1.93" rx="40.47" ry="40.43"></ellipse>
					<g id="Icons-_x2F_-User_3_" transform="translate(23.318182, 22.003003)">
						<path id="Color" class="st0" d="M19.31-20.48c-4.08,0-7.39-3.26-7.39-7.28s3.31-7.28,7.39-7.28s7.39,3.26,7.39,7.28        S23.39-20.48,19.31-20.48z M19.31-16.83c7.4,0,13.4,5.91,13.4,13.2H5.92C5.92-10.92,11.91-16.83,19.31-16.83z"></path>
					</g>
				</g>
			</g>
			<path id="Text_4_" class="st0" d="M105.84,114.8h87.52c3.31,0,5.99,2.68,5.99,5.99v0c0,3.31-2.68,5.99-5.99,5.99h-87.52     c-3.31,0-5.99-2.68-5.99-5.99v0C99.85,117.48,102.53,114.8,105.84,114.8z"></path>
			<path id="Title" class="st0" d="M88.49,95.34h122.22c3.31,0,5.99,2.68,5.99,5.99v0c0,3.31-2.68,5.99-5.99,5.99H88.49     c-3.31,0-5.99-2.68-5.99-5.99v0C82.5,98.02,85.18,95.34,88.49,95.34z"></path>
		</g>
	</g>
	<g id="Group" transform="translate(390.000000, 357.000000)">
		
			<g id="Chair-3" transform="translate(166.000000, 499.845258) scale(-1, 1) translate(-166.000000, -499.845258) translate(0.000000, 241.345258)">
			<g id="Chair" transform="translate(0.528066, 0.070193)">
				<path id="Path" class="st1" d="M17.59,600.67l0.46,0.23c2.43,1.27,5.55,0.58,6.71-1.62l135.48-248.86      c1.27-2.31,0.23-5.21-2.2-6.48l-0.46-0.23c-2.43-1.27-5.55-0.58-6.71,1.62l-33.55,61.55c-21.87,40.26-43.73,80.41-65.71,120.67      l-36.21,66.41C14.12,596.27,15.16,599.28,17.59,600.67z"></path>
				<path id="Path_1_" class="st1" d="M349.74,339.66h-84.8c-51.37,0-102.74,0-153.99,0H32.28c-2.78,0-5.21,2.31-5.21,5.09v0.58      c0,2.78,2.31,5.09,5.21,5.09h317.69c2.78,0,5.21-2.31,5.21-5.09v-0.58C355.18,341.98,352.75,339.66,349.74,339.66z"></path>
				<path id="Path_2_" class="st1" d="M395.33,593.96l-36.21-66.41c-21.87-40.26-43.73-80.41-65.71-120.67l-33.55-61.55      c-1.16-2.2-4.28-3.01-6.71-1.62l-0.46,0.23c-2.43,1.27-3.47,4.28-2.2,6.48l135.48,248.86c1.16,2.2,4.28,3.01,6.71,1.62      l0.46-0.23C395.56,599.28,396.6,596.27,395.33,593.96z"></path>
				<path id="Path_3_" class="st1" d="M385.72,10.63l-10.99,88.85c-6.71,53.8-13.3,107.59-20.01,161.28l-10.18,82.37      c-0.35,2.89,1.62,5.78,4.4,6.13l0.58,0.12c2.78,0.35,5.32-1.74,5.78-4.86l41.3-332.73c0.35-2.89-1.62-5.78-4.4-6.13l-0.58-0.12      C388.73,5.19,386.07,7.51,385.72,10.63z"></path>
			</g>
		</g>
		
			<g id="Chair-2" transform="translate(786.000000, 496.345258) scale(-1, 1) translate(-786.000000, -496.345258) translate(621.000000, 236.345258)">
			<path id="Path_4_" class="st1" d="M296.17,605.27l-0.46,0.23c-2.43,1.27-5.55,0.58-6.71-1.62L153.52,355.03     c-1.27-2.31-0.23-5.21,2.2-6.48l0.46-0.23c2.43-1.27,5.55-0.58,6.71,1.62l33.55,61.55c21.87,40.26,43.73,80.41,65.71,120.67     l36.21,66.41C299.64,600.88,298.6,603.89,296.17,605.27z"></path>
			<path id="Path_5_" class="st1" d="M-40.15,344.27h84.8c51.37,0,102.74,0,153.99,0h78.67c2.78,0,5.21,2.31,5.21,5.09v0.58     c0,2.78-2.31,5.09-5.21,5.09H-40.38c-2.78,0-5.21-2.31-5.21-5.09v-0.58C-45.59,346.58-43.16,344.27-40.15,344.27z"></path>
			<path id="Path_6_" class="st1" d="M-45.24,321.71v-83.18c0-50.44,0-100.77,0-151.1V10.26c0-2.78,48.01-5.09,105.74-5.09h12.03     c57.62,0,105.74,2.31,105.74,5.09v311.68c0,2.78-48.01,5.09-105.74,5.09H60.5C2.89,327.03-45.24,324.6-45.24,321.71z"></path>
			<path id="Path_7_" class="st1" d="M-81.57,598.56l36.21-66.41c21.87-40.26,43.73-80.41,65.71-120.67l33.55-61.55     c1.16-2.2,4.28-3.01,6.71-1.62l0.46,0.23c2.43,1.27,3.47,4.28,2.2,6.48L-72.2,603.89c-1.16,2.2-4.28,3.01-6.71,1.62l-0.46-0.23     C-81.8,603.89-82.84,600.88-81.57,598.56z"></path>
		</g>
		<g id="Characters-sitting-_x2F_-Woman-sitting_x2F_-7" transform="translate(429.000000, 0.000000)">
			<g id="Woman" transform="translate(71.000000, 91.000000)">
				
					<g id="Legs" transform="translate(207.500000, 477.000000) scale(-1, 1) translate(-207.500000, -477.000000) translate(35.000000, 288.000000)">
					<path id="Base" class="st1" d="M321.77,463.26H137.94c-2.89,0-5.21-2.31-5.21-5.21s2.31-5.21,5.21-5.21h183.84       c2.89,0,5.21,2.31,5.21,5.21S324.67,463.26,321.77,463.26z M-16.63,463.26c-2.89,0-5.21-2-5.21-4.41v-1.6       c0-2.4,2.43-4.41,5.21-4.41h118.59c2.89,0,5.21,2,5.21,4.41v1.6c0,2.4-2.43,4.41-5.21,4.41H-16.63z"></path>
					<path id="Shoes" class="st7" d="M323.5,453.23c-0.6-0.24-1.27-0.38-1.96-0.38H137.71c-0.74,0-1.44,0.15-2.08,0.43       c-0.15-0.52-0.24-1.08-0.24-1.66l3.85-70.48l79.68-1.17c1.27,0,2.43,0.35,3.47,1.17c13.19,14.31,25.8,22.28,34.94,26.97       c7.06,3.64,30.66,13.72,41.3,18.65c3.27,1.48,8.12,4.14,14.54,7.98c1.52,0.91,2.9,2.05,4.08,3.38       c3.33,3.75,5.41,7.12,6.26,10.09c0.23,0.7,0.23,1.29,0.35,1.99c0.12,0.59,0,1.17,0,1.76v0.12       C323.77,452.48,323.65,452.86,323.5,453.23z M104.21,453.38c-0.74-0.34-1.58-0.53-2.48-0.53H-15.14l26.86-71.61l82.84,11.22       L104.21,453.38z"></path>
					<path class="st3" d="M131.57,178.7c-3.34,1.66-6.45,3.21-9.34,4.65l-0.6,9.15c-0.69,12.02-1.5,22.57-2.43,31.87       c-0.69,7.31-9.6,90.18-12.84,120.59c-0.69,6.9-5.67,12.75-12.49,14.63c-10.3,2.93-16.89,4.6-43.62,5.54       c-1.74,0.1-3.47,0-5.09-0.1c-25.92-2.09-38.87-5.85-41.77-7.11c-3.7-1.57-5.67-2.3-7.64-4.08c-6.94-6.06-6.48-15.67-6.59-19.23       C-11.43,311.97-13,251-13.48,198.55c-0.7,0-1.4,0-2.11,0.01c-6.58,0-12.92-2.78-18.75-7.64c-7.45-6.25-33.65-26.91-35.28-70.38       c-1.13-30.24,4.14-53.21,15.8-68.92c0-0.12,14.52-23.02,23.34-23.02H99.4c9.03,0.31,49.33,1.35,120.91,3.13l-0.04,0.28       c0.4-0.01,0.8-0.02,1.2-0.03c29.27-0.54,52.99,22.8,52.29,51.3c0,0.22,0,0.32,0,0.54c-1.85,88.4-23.49,214.34-24.99,256.92       c-0.12,1.61-0.58,5.16-3.01,8.93c-7.52,11.51-25.11,8.93-66.18,9.89c-34.94,0.86-49.05,3.44-56.23-6.02       c-3.93-5.16-3.82-11.08-3.7-13.77C122.52,285.82,126.68,231.36,131.57,178.7z"></path>
					<path id="Shadow-Legs" class="st8" d="M131.32,178.47c-3.34,1.66-6.45,3.21-9.34,4.65l5.3-81.06       c0.12-4.7,0.69-33.13-22.33-51.2C88.17,37.8,67.81,36.96,54.28,36.44c-20.82-0.84-37.02,4.6-40.15,5.64       c-3.93,1.36-5.9,2.09-7.87,3.03c-22.44,10.87-20.71,63.12-20.48,72.63c0.23,12.02,0.35,30.72,0.35,52.46       c0,8.84,0.05,18.28,0.14,28c-0.62,0-1.24,0-1.86,0.01c-6.58,0-12.92-2.78-18.75-7.64c-7.45-6.25-33.65-26.91-35.28-70.38       c-1.13-30.24,4.14-53.21,15.8-68.92c0-0.12,14.52-23.02,23.34-23.02H99.4c8.79,0.3,48.25,1.49,118.38,3.56       c-8.55,0.19-17.03,0.38-25.6,0.57c-26.03,0.65-47.67,19.9-50.44,45.06C138.06,109.9,134.53,143.8,131.32,178.47z"></path>
				</g>
				<g id="Body" transform="translate(189.500000, 303.000000) scale(-1, 1) translate(-189.500000, -303.000000) ">
					<path id="Finger" class="st9" d="M131.08,182.98c17.01-12.73,60.97-47.32,60.97-47.32c14.35,12.96-20.13,36.21-20.13,36.21"></path>
					<path id="Loupe" class="st7" d="M209.58,130.75c-8.63-14.41-6.15-33.38,6.8-45.04c14.72-13.25,37.4-12.07,50.65,2.65       c13.25,14.72,12.07,37.4-2.65,50.65c-12.65,11.39-31.18,12.11-44.55,2.75l-41.09,37c-0.95,0.86-2.41,0.78-3.27-0.17l-6.97-7.74       c-0.86-0.95-0.78-2.41,0.17-3.27L209.58,130.75z M222.32,128.62c8.98,9.97,24.34,10.78,34.31,1.8       c9.97-8.98,10.78-24.34,1.8-34.31c-8.98-9.97-24.34-10.78-34.31-1.8C214.15,103.28,213.34,118.64,222.32,128.62z"></path>
					<path id="T-shirt" class="st10" d="M105.73,145.04c1.74,4.55,3.14,9.22,4.22,14.01c6.4,28.5,16.86,45.28,9.66,58.92       c-4.25,8.05-12.42,10.46-18.76,11.14l-4.35,54.38c-1.73,14.72-2.88,22.92-3.46,24.58c0.11,13.61-16.99,10.15-48.83,10.15       c-37.04,0-86.46,4.99-89.4-8.72c-2.65-12.35-2.02-38.27,1.91-77.74c-12.87-3.37-22.34-9.19-24.76-13.9       c-6.79-13.09,1-34.24,9.69-57.98c10.47-28.46,16.15-42.46,28.96-54.02c10.61-9.56,22.2-12.86,31.97-11.01       c7.88-3.17,16.54-4.58,25.49-3.79l25.36,2.24C80.44,95.47,101.36,118.06,105.73,145.04z"></path>
					<path id="Shadow-T-shirt" class="st8" d="M106.52,146.73c1.49,4.09,2.72,8.28,3.68,12.56c6.4,28.5,16.86,45.28,9.66,58.92       c-4.2,7.95-12.22,10.4-18.52,11.11l0.28-3.45l0.08-1.15l5.03-61.93l0.15-2.08C107.26,155.99,107.13,151.3,106.52,146.73z"></path>
					<path id="Skin" class="st11" d="M16.93,91.19c2-6.72,4.88-17.83,8.64-33.32l0.33-6.52c-0.23-1.27-0.45-1.31-1.6-1.66       c-3.01-0.81-4.63-2.76-6.71-5.08c-3.82-4.4-4.86-10.88-3.01-16.78c2.31-5.67,8.33-9.95,13.88-9.49c2.08,0.23,4.05,1.04,5.9,2.2       l0.12,0.12c0.58,0.58,1.39,0.69,2.2,0.81c1.97,0,3.59-1.39,3.7-3.36l1.04-30.2c0-1.97,1.5-3.36,3.47-3.36       c4.28,0,8.45-0.23,12.73-1.16c0.58,0,1.04-0.12,1.5-0.12c4.16-0.46,26.49-1.85,38.53,14.69c1.04,1.62,2.08,3.24,2.89,4.86       c2.08,4.16,3.01,8.79,2.66,13.65l-1.27,21.06c-0.23,2.08-0.46,4.16-0.93,6.36C95.45,69.95,83.65,88,73.7,88.58       c-5.09,0.12-10.18-0.46-15.16-1.97c-0.62-0.31-0.23-0.07-7.18-2.88l-1.42,7.66c13.81,2.25,21.5,6.64,22.34,7.08       c-2.46,2.72-2.8,3.63-4.93,5.35c-23.76,19.2-62.34-6.08-67.2-9.32C6.08,92.97,11.68,91.9,16.93,91.19z M118.42,250.61       l1.86,13.3l91.86,17.34c2.71-0.47,5.33-0.73,7.86-0.8c8.7-0.36,16.19,1.33,21.26,2.65c12.68-0.6,25.25-1.33,37.81-1.93       c10.27-2.41,33.22-6.03,33.95,8.44c0,0-9.91,2.65-23.32,6.15c-3.14,0.82-6.47,1.68-9.91,2.58       c-17.78,6.14-41.05,18.8-54.45,23.09l-137.25-4.79c2.07-2.54,3.62-5.43,4.54-8.68c0.58-1.66,1.73-9.85,3.46-24.58l1.66-20.74       c-25.07,14.25-48.35,26.18-69.84,35.78c-13.02,5.82-28.94,10.38-41.71,14.74c-29.76,6.06-35.38-4.66-38.78-8.17       c-3.96-4.09-17.13-15.71-11.2-82.4c10.78,8.1,36.55,15.99,62.26,9.01c6.65-1.81,12.58-3.51,17.81-5.12l-0.42,4.02l137.43-57.68       c0.33-0.26,0.69-0.48,1.07-0.68l39.68-18.86c3.01-1.39,6.71-0.12,8.21,2.89l1.39,2.66c1.41,2.93,0.28,6.26-2.35,7.91       c2.79-0.59,5.56,0.73,6.74,3.38l1.39,2.66c1.18,2.45,0.58,5.2-1.2,6.99c1.51,0.46,2.87,1.49,3.7,3l1.53,2.58       c1.67,3.04,0.47,6.69-2.46,8.35l-20.72,11.21C164.99,221.92,141.03,237.14,118.42,250.61z M218.26,646.59l1.05,22.89       l-81.07,6.26l0.35-27.73c8.87,0.58,21.45-0.34,39.75-0.79C195.36,646.82,208.35,647.03,218.26,646.59z M91.29,647.62       l2.22,35.05l-83.35-9.9l3.89-24.03c6.86,1.38,16.68,2.87,29.85,3.93c1.62,0.1,3.36,0.21,5.09,0.1       C74.56,651.88,81.7,650.31,91.29,647.62z"></path>
					<path id="Hair" class="st9" d="M22.62,70.67c-1.34,5.96-2.53,10.89-3.35,13.4c-1.83,0-3.66,0-5.51,0       c-2.76,0-12.76-1.05-22.1-1.62c0,0-0.69,0-1.27-0.12c-3.01-0.46-5.9-0.93-8.79-2.43c0,0-0.93-0.35-1.74-1.04       c-16.31-13.42-19.9-32.63-12.96-43.38c4.97-7.52,14.69-10.41,16.08-10.88c1.85-0.58,3.7-0.81,5.32-0.93       c0.63-1.9,1.26-3.89,1.9-5.89C-9.62,11.03-8.12,2.06-2.2-5.36c2.43-3.12,5.67-5.44,9.14-7.17c9.26-4.63,16.31-2.31,34.59-2.78       c3.7,0,16.48-1.63,16.94-1.63c18.85-1.19,32.03,4.02,39.54,15.63c-5.57-0.85-10.09-0.85-13.56,0       C62.01,4.24,55.42,43.11,45.12,41.49c-0.1-0.01-0.2-0.03-0.31-0.05l0.08-0.06l-4.97-13.65c-1.16-2.78-3.12-4.97-5.44-6.83       c-1.85-1.16-3.82-1.97-5.9-2.2c-5.55-0.46-11.57,3.82-13.88,9.49c-0.38,0.97-0.66,1.96-0.85,2.96       c-0.64,4.91,0.62,9.88,3.74,13.47c0.17,0.19,0.35,0.38,0.54,0.57c0.01,0.01,0.02,0.02,0.02,0.03c2.42,2.5,5.58,4.22,9.02,4.9       C25.74,57.8,23.47,67.82,22.62,70.67z M85.61,31.43c-2.31,0.58-6.13,1.16-9.26,0.35c-5.44-1.16-0.35-4.4,4.63-4.63       c2.31-0.12,4.16,0.81,5.32,1.74C87.12,29.69,86.77,31.2,85.61,31.43z M105.15,31.43c-2.38,0.61-6.04,1.33-9.33,0.46       c-5.58-1.3-0.41-4.57,4.48-4.72c2.57-0.12,4.22,0.83,5.42,1.75C106.7,29.71,106.34,31.18,105.15,31.43z"></path>
					<path id="Shadow-Arm" class="st12" d="M116.64,251.33c0.57-0.33,1.13-0.66,1.7-1l1.94,13.69l91.85,17.23       c2.72-0.47,5.34-0.73,7.87-0.8c8.7-0.36,16.19,1.33,21.26,2.65c12.68-0.6,25.25-1.33,37.81-1.93       c10.27-2.41,33.22-6.03,33.95,8.44c0,0-9.91,2.65-23.32,6.15c-3.14,0.82-6.47,1.68-9.91,2.58       c-17.78,6.14-41.05,18.8-54.45,23.09l-137.25-4.79c2.07-2.54,3.62-5.43,4.54-8.68c0.58-1.66,1.73-9.85,3.46-24.58l1.56-19.44       l0.11-0.44l-0.07-0.02l0.07-0.84L116.64,251.33z"></path>
					<path id="Notepad" class="st7" d="M365.15,247.23L365.15,247.23c1.05,3.55-0.91,7.21-4.46,8.26l-158.97,48.85       c-3.55,1.05-7.21-0.91-8.26-4.46l0,0c-1.05-3.55,0.91-7.21,4.46-8.26l158.97-48.85C360.33,241.73,364.1,243.68,365.15,247.23z"></path>
					<polygon id="Shadow" class="st9" points="51.32,83.59 42.25,79.54 49.61,93.05      "></polygon>
					<path id="Eyes" class="st9" d="M96.72,45.54c-1.04-1.39-0.69-4.51-0.35-6.59c0.12-1.5,1.5-2.43,2.78-2.43       c0.81,0.12,1.85,0.58,2.08,2.2C102.04,42.53,98.11,47.86,96.72,45.54z M77.63,45.66c-1.16-1.39-0.69-4.63-0.35-6.59       c0.12-1.5,1.5-2.43,2.78-2.43c0.81,0.12,1.85,0.58,2.08,2.2C82.95,42.65,79.14,47.97,77.63,45.66z"></path>
					<path id="Nose" class="st9" d="M94.71,43.62l1.03-6.74c0.1-0.63-0.34-1.22-0.97-1.32s-1.22,0.34-1.32,0.97l-1.04,6.81       l-0.01,0.14l-0.33,12.26c-0.05,0.14-0.16,0.23-0.31,0.24c-1.4-0.18-3.2-0.35-5.41-0.51c-0.64-0.05-1.19,0.43-1.24,1.07       c-0.05,0.64,0.43,1.19,1.07,1.24c2.21,0.16,4,0.33,5.36,0.5l0.13,0.01c1.35,0.02,2.45-0.92,2.68-2.19l0.02-0.18L94.71,43.62z"></path>
					<path id="Mouth" class="st9" d="M85.38,67.18c-0.81-0.12-2.89-0.58-3.36-1.85c0-0.23-0.23-0.58-0.12-0.81       c0.35-0.58,3.93-0.58,3.93-0.58c4.74,0.12,5.9-0.12,6.25,0.46c0.12,0.35,0.12,0.81-0.69,1.85       C90.36,68.22,86.54,67.52,85.38,67.18z"></path>
					<path id="Shadow_1_" class="st9" d="M15.29,225.28l6.33-58.49c0.1-0.95-0.59-1.81-1.54-1.91c-0.95-0.1-1.81,0.59-1.91,1.54       l-6.33,58.49c-0.1,0.95,0.59,1.81,1.54,1.91C14.33,226.93,15.19,226.24,15.29,225.28z"></path>
				</g>
			</g>
		</g>
		<g id="Characters-sitting-_x2F_-Woman-sitting_x2F_-6" transform="translate(10.000000, 0.000000)">
			<g id="Woman_1_" transform="translate(34.000000, 65.000000)">
				
					<g id="Legs_1_" transform="translate(229.000000, 490.000000) scale(-1, 1) translate(-229.000000, -490.000000) translate(4.000000, 288.500000)">
					<path id="Base_1_" class="st1" d="M153.14,478.35h160.48c2.93,0,5.27,2.31,5.27,5.21s-2.34,5.21-5.27,5.21H127.49H-5.04       c-2.89,0-5.21-2.31-5.21-5.21s2.31-5.21,5.21-5.21H153.14z"></path>
					<path id="Shoes_1_" class="st7" d="M-6.6,478.46c-0.24-0.47-0.42-0.97-0.53-1.5v-0.12c0-0.58-0.12-1.16,0-1.74       c0.12-0.69,0.12-1.27,0.35-1.97c1.5-5.21,5.55-9.6,8.21-12.03c0.35-0.35,0.58-0.46,0.93-0.69c5.09-3.12,10.3-6.02,15.73-8.45       c10.64-4.86,34.25-14.81,41.3-18.4c9.14-4.63,21.75-12.49,34.94-26.61c1.04-0.81,2.2-1.16,3.47-1.16l79.48,0.46       c3.36,0,6.02,2.78,5.78,6.25l-0.75,27.56c3.37-1.59,6.79-3.35,10.64-5.58c5.47-3.12,13.15-8.21,21.77-15.85       c4.77-4.16,9.66-8.33,14.43-12.49l72.05-0.93l15.05,74.11c-0.87-0.62-1.94-0.99-3.1-0.99H152.68H-5.5       C-5.88,478.35-6.24,478.39-6.6,478.46z"></path>
					<path id="Shadow-Shoes" class="st8" d="M128.7,478.35H-5.33c-0.3-0.53-0.52-1.11-0.65-1.74v-0.12c0-0.58-0.12-1.16,0-1.74       c0.12-0.69,0.12-1.27,0.35-1.97c1.5-5.21,5.55-9.6,8.21-12.03c0.35-0.35,0.58-0.46,0.93-0.69c5.09-3.12,10.3-6.02,15.73-8.45       c10.64-4.86,34.25-14.81,41.3-18.4c9.14-4.63,21.75-12.49,34.94-26.61c1.04-0.81,2.2-1.16,3.47-1.16l79.48,0.46       c3.36,0,4.89,2.44,4.66,5.91l-0.78,28.84c-7.96,3.68-15.91,6.64-28.87,12.8c-5.55,2.66-10.88,5.67-16.08,9.02       c-2.55,2.31-6.94,7.06-8.33,12.61c-0.23,0.93-0.23,1.85-0.35,2.66C128.69,477.97,128.69,478.16,128.7,478.35z"></path>
					<path class="st3" d="M167.07,421.92c-0.4,0.04-0.8,0.07-1.21,0.07l-75.13-0.8h-6.07c-5.97,0-11.01-4.6-11.32-11.42       c-0.72-13.76-1.65-31.86-2.78-52.79c-3.09-52.79-4.73-69.6-6.59-110.28c-0.31-6.82-0.62-12.93-0.82-18.69       c-0.82-27.39-2.98-53.02-7.2-86.53c-2.37-18.58-3.5-30.1-3.6-39.85c-0.1-9.05,2.26-17.99,6.79-25.39       c2.26-3.64,4.84-6.82,7.92-9.52c7.92-6.94,18.52-12.81,26.96-12.23c21.87,0.1,43.75,0.12,65.62,0.2       c4.58-1.09,9.69-1.62,15.33-1.61l10.97,0.12c-0.06-0.13,46.12-0.38,138.55-0.73c28.63-22.48,60.27-31.9,94.91-28.27       c13.83,1.45,26.35,5.39,37.58,11.84c12.4,7.02,23.22,17.06,32.47,30.13c5.7,5.96,22.83,33.19,19.43,74.65       c-0.66,7.64-2.08,24.64-11.3,40.84c-9.65,16.89-21.5,29.27-41.35,36.33c-17.55,6.25-38.06,8.45-59.34,6.02       c-29.98-5.71-64.66-10.45-104.03-14.23c10.63,29.09,17.52,47.38,20.66,54.86c4.72,11.11,17.52,59.06,22.33,95.79       c2.35,17.97,1.53,33.85-2.46,47.66c-2.44,8.42-10.15,14.21-18.91,14.2l-98.47-0.1l-44.2-0.23H167.07z"></path>
					<path id="Shadow-Legs_1_" class="st13" d="M161.24,54.68c-9.76,2.08-17.2,6.57-22.34,13.45c-11.08,14.86-7.89,29.16-7.89,37.95       v0.58c0.11,9.6,1.32,20.94,3.73,39.22c4.5,32.97,6.8,58.08,7.68,85.15c0.22,5.55,0.55,11.69,0.88,18.4       c1.86,39.91,3.73,56.46,7.02,108.52c1.32,20.59,2.3,38.29,2.96,51.95c0.33,6.71,5.7,12.03,12.07,12.03h1.75       c-0.41,0.06-0.82,0.09-1.24,0.09l-75.13-0.82h-6.07c-5.97,0-11.32-4.94-11.32-12.54c-0.72-13.71-1.65-31.76-2.78-52.62       c-3.09-52.62-4.73-69.38-6.59-109.93c-0.31-6.8-0.62-12.89-0.82-18.63c-0.82-27.31-2.98-52.86-7.2-86.26       c-2.37-18.52-3.5-30-3.6-39.73c-0.1-9.02,2.26-17.93,6.79-25.31c2.26-3.63,4.84-6.8,7.92-9.49       c7.92-6.91,18.52-12.77,26.96-12.19C116.43,54.58,138.84,54.59,161.24,54.68z"></path>
				</g>
				<g id="Body_1_" transform="translate(-0.000000, 0.263725)">
					<path id="T-shirt_1_" class="st14" d="M113.37,129.77c10.07,7.85,18.19,19.93,19.72,24.36c12.63,36.74,27.85,35.29,29.06,43.25       c1.82,11.91-12.12,13.36-12.12,13.36c-6.47,0.62-11.4,1.09-14.77,1.42l-0.8,32.87l-0.08,1.16l-1.35,57.58l-0.3,11.24       c0.03,0.92-0.06,1.74-0.14,2.67c-0.08,1.04-0.16,1.97-0.24,3.02c-0.25,2.67-0.74,5.24-1.46,7.81c-0.31,1.05-0.51,2.1-0.93,3.16       c-96.28,3.36-144.71-3.36-145.29-20.16l2.4-100.3l-14.6-0.49c0,0-15.87-1.07-14.06-13.05c1.21-8.01,18.62-7.35,32.23-44.68       c1.87-5.12,13.29-20.59,26.79-28.55c0.43-0.25,0.86-0.5,1.29-0.73c9.21-5.21,19.91-8.07,31.24-7.8l26.65,0.69       C90.58,116.85,103.31,121.75,113.37,129.77z"></path>
					<path id="Combined-Shape_3_" class="st8" d="M125.9,142.48c3.82,4.88,6.48,9.37,7.29,11.72       c12.63,36.74,27.75,35.22,28.96,43.18c1.82,11.91-11.96,13.32-11.96,13.32l-14.55,1.41l0.78-31.8l0.04-2.09       C136.82,164.97,132.89,152.62,125.9,142.48z"></path>
					<g id="Skin_1_">
						<path id="path-1_1_" class="st15" d="M60.06,68.22c-0.21-0.19-0.42-0.4-0.62-0.61c-3.66-3.86-5.81-10-3.79-15.93        c1.88-5.72,7.49-10.34,13.05-10.11c3.13,0.1,11.54,2.02,11.48-0.77l-0.61-29.51c-0.04-1.86,1.41-3.45,3.28-3.48        c4.09-0.15,8.1-0.66,12.41-1.83c0.47-0.07,0.94-0.13,1.42-0.2c3.91-0.63,25.83-3.32,38.39,12.14c1.14,1.28,2.15,2.78,3.13,4.5        c2.26,3.95,3.41,8.47,3.39,13.11l-0.08,20.63c-0.1,2.08-0.21,4.15-0.54,6.2c-3.99,25.67-14.62,43.8-24.28,44.87        c-1.19,0.22-7.39,0.62-14.78-1.08c-0.67-0.19-0.14,0.1-9.76-3.28l-1.59,15.65c-4.59-1.2-9.41-1.88-14.38-1.98l-19.88-0.51        l2.51-23.81L59.9,81.9L60.06,68.22z M133.26,291.3l0.97-41.5l0.1-3.9l0.06-0.89l0.47-19.04l0.36-13.78l9.41-0.9l32.47,88.35        c3.03,0.57,6.54,1.29,10.66,2.17c6.62-0.04,12.1,0.12,16.44,0.45c17.58,1.37,32.68,1.95,50.36,12.45        c32.23,19.15,34.74,27.97,7.54,26.46l-55.49-0.32c-0.69,0.25-1.38,0.42-2.07,0.48c0,0-81.09-0.71-243.27-2.14        c-6.52-0.06-12.65-3.14-16.58-8.35c-1.89-2.5-3.26-7.09-4.12-13.75c-2.65-14.06,4.92-34.18,19.3-73.29        c4.57-12.4,8.91-23.67,12.98-33.68l89.65,3.39c-6.91,17.18-19.11,58.04-22.57,64.3c-0.01,0-0.02,0.01-0.02,0.01        C65.72,281.29,96.65,285.6,133.26,291.3z"></path>
					</g>
					<polygon id="Shadow_2_" class="st9" points="91.29,111.44 80.54,97.8 92.18,102.86      "></polygon>
					<path id="Hair_1_" class="st9" d="M82.02,50.06c-0.47-0.86-2.29-3.86-5.6-6.18c-0.32-0.27-2.83-1.81-5.97-1.91       c-5.56-0.24-11.17,4.41-13.05,10.15c-2.02,5.95,0.01,12.1,3.67,15.97c2.83,2.99,6.26,4.18,8.37,4.68       c-0.02,3.93,0.06,8.2,0.24,12.81c-8.97-0.59-16.88-4.5-23.72-11.73c-2.83-2.97-10.34-11.21-12.68-24.37       c-0.27-1.67-0.8-4.87-0.85-8.83C14.65,40.95,0.25,33-5.04,21.71C-9.98,11.09-6.55-1.63-6.07-3.43       c4.88-18.12,21.33-17.92,22.73-17.95c0,0,23.71-8.23,42.44,29.68c0.01,0.02,0.02,0.05,0.04,0.07       c5.37-0.42,11.89-0.04,21.82-0.64c3.63-0.2,8.92-1.09,15.42-2.03c0.46,0.05,6.02-0.52,6.49-0.58c2.35,0,10.21-0.74,20.38,3.81       c10.17,4.55,13.92,11.4,13.77,11.69c-0.29,0.55-5.48,2.9-8.58,3.62c-8.7,1.99-16.26,0.85-20.9-0.34       c-1.22,2.78-2.95,5.97-5.26,9.1c-6.68,9.3-15.09,14.12-20.34,16.47C81.96,49.67,81.99,49.87,82.02,50.06z"></path>
					<path id="Eyes_1_" class="st9" d="M133.93,55.04c0.13-1.58,1.39-2.76,2.98-2.75c0.97-0.07,1.87,0.6,2.36,2.26       c1.02,4.05-2.83,10.13-4.59,7.71C133.6,60.76,133.84,57.23,133.93,55.04z M108.38,54.51c0.13-1.58,1.39-2.76,2.98-2.75       c0.97-0.07,1.87,0.6,2.36,2.26c1.02,4.05-2.83,10.13-4.59,7.71C108.05,60.23,108.29,56.7,108.38,54.51z"></path>
					<path id="Nose_1_" class="st9" d="M128,56.28l1.82,11.12c0.1,1.41-0.88,2.79-2.23,2.88c-0.79,0.12-1.31,0.15-3.36,0.26       c-0.92,0.05-1.55,0.08-2.29,0.14c-0.64,0.04-1.19-0.44-1.23-1.07s0.44-1.19,1.07-1.23c0.76-0.05,1.4-0.09,2.34-0.14       c1.97-0.1,2.45-0.13,3.23-0.25c0.05-0.01,0.19-0.2,0.18-0.32l-1.81-11.01c-0.1-0.63,0.32-1.23,0.95-1.33       C127.3,55.22,127.89,55.65,128,56.28z"></path>
					<path id="Mouth_1_" class="st9" d="M120.71,77.77c-0.79-0.2-2.72-0.95-3.03-2.2c-0.02-0.25-0.15-0.62-0.05-0.76       c0.4-0.66,1.86-0.26,3.87-0.02c3.56,0.39,6.53,0.18,6.53,0.18s-0.84,2.22-1.35,2.89C125.58,79.46,121.95,78.19,120.71,77.77z"></path>
					<path id="Glass" class="st9" d="M91.03,49.68c2.07-5.93,7.51-10.37,14.17-10.84c8.92-0.62,16.66,6.1,17.29,15.03       c0.01,0.13,0.02,0.26,0.02,0.39c0.15-0.03,0.3-0.04,0.45-0.03l3.26,0.23c0.71-7.77,6.97-14.09,15-14.65       c8.92-0.62,16.66,6.1,17.29,15.03c0.62,8.92-6.1,16.66-15.03,17.29c-8.64,0.6-16.17-5.68-17.21-14.18l-3.55-0.25       c-0.14-0.01-0.27-0.04-0.4-0.08c-1.18,7.25-7.21,13.01-14.86,13.54c-8.92,0.62-16.66-6.1-17.29-15.03       c-0.07-1.04-0.05-2.07,0.07-3.07L81.83,51c-0.93-0.23-1.5-1.17-1.27-2.1c0.23-0.93,1.17-1.5,2.1-1.27L91.03,49.68z        M129.64,56.5c0,0.12,0.01,0.24,0.02,0.35c0.49,7.01,6.57,12.3,13.58,11.81c7.01-0.49,12.3-6.57,11.81-13.58       c-0.49-7.01-6.57-12.3-13.58-11.81c-6.74,0.47-11.89,6.11-11.84,12.78c0.02,0.13,0.03,0.26,0.02,0.39       C129.64,56.46,129.64,56.48,129.64,56.5z M107.22,67.7c7.01-0.49,12.3-6.57,11.81-13.58c-0.49-7.01-6.57-12.3-13.58-11.81       c-7.01,0.49-12.3,6.57-11.81,13.58C94.13,62.9,100.21,68.19,107.22,67.7z"></path>
					<path id="Shadow_3_" class="st9" d="M26.89,287.67c-0.84,0.46-1.9,0.15-2.35-0.69c-0.46-0.84-0.15-1.9,0.69-2.35l14.46-7.89       c0.84-0.46,1.9-0.15,2.35,0.69c0.46,0.84,0.15,1.9-0.69,2.35L26.89,287.67z M63.64,214.74c-0.37,0.88-1.39,1.29-2.28,0.92       c-0.88-0.37-1.29-1.39-0.92-2.28l15.49-36.52c0.37-0.88,1.39-1.29,2.28-0.92c0.88,0.37,1.29,1.39,0.92,2.28L63.64,214.74z"></path>
					<path id="Shadow-Arms" class="st12" d="M133.25,291.63l1.06-45.34l0.08-1.16l0.8-32.96l9.41-0.91l32.4,88.59L133.25,291.63z"></path>
				</g>
			</g>
			<path id="Shadow_4_" class="st9" d="M196.84,564.18l33.56-35.22c0.66-0.69,0.63-1.79-0.06-2.45c-0.69-0.66-1.79-0.63-2.45,0.06     l-33.56,35.22c-0.66,0.69-0.63,1.79,0.06,2.45C195.08,564.9,196.18,564.87,196.84,564.18z"></path>
		</g>
		<path id="Rectangle" class="st1" d="M4.87,404.94h925.55c4.47,0,8.1,3.63,8.1,8.1l0,0c0,4.47-3.63,8.1-8.1,8.1H4.87    c-4.47,0-8.1-3.63-8.1-8.1l0,0C-3.23,408.57,0.39,404.94,4.87,404.94z"></path>
	</g>
	<g id="UI-_x2F_-Content-_x2F_-Text-2-_x2F_-2" transform="translate(948.000000, 107.000000)">
		<g id="Content">
			<g id="Browser_1_">
				<g id="Background_2_">
					<path class="st0" d="M43.84-71.61h380.63c12.78,0,23.14,10.36,23.14,23.14v281.13c0,12.78-10.36,23.14-23.14,23.14H43.84       c-12.78,0-23.14-10.36-23.14-23.14V-48.47C20.7-61.25,31.06-71.61,43.84-71.61z"></path>
				</g>
			</g>
			<g id="Text_5_" transform="translate(21.834320, 73.478149)">
				<path class="st2" d="M29.92-35.01h147.75c3.19,0,5.78,2.59,5.78,5.78v4.28c0,3.19-2.59,5.78-5.78,5.78H29.92      c-3.19,0-5.78-2.59-5.78-5.78v-4.28C24.13-32.42,26.72-35.01,29.92-35.01z M29.92-9.26h167.66c3.19,0,5.78,2.59,5.78,5.78V0.8      c0,3.19-2.59,5.78-5.78,5.78H29.92c-3.19,0-5.78-2.59-5.78-5.78v-4.28C24.13-6.67,26.72-9.26,29.92-9.26z M29.92,42.24h187.58      c3.19,0,5.78,2.59,5.78,5.78v4.28c0,3.19-2.59,5.78-5.78,5.78H29.92c-3.19,0-5.78-2.59-5.78-5.78v-4.28      C24.13,44.83,26.72,42.24,29.92,42.24z M29.92,67.99h127.83c3.19,0,5.78,2.59,5.78,5.78v4.28c0,3.19-2.59,5.78-5.78,5.78H29.92      c-3.19,0-5.78-2.59-5.78-5.78v-4.28C24.13,70.58,26.72,67.99,29.92,67.99z M29.92,93.75h167.66c3.19,0,5.78,2.59,5.78,5.78v4.28      c0,3.19-2.59,5.78-5.78,5.78H29.92c-3.19,0-5.78-2.59-5.78-5.78v-4.28C24.13,96.34,26.72,93.75,29.92,93.75z M29.92,119.5      h187.58c3.19,0,5.78,2.59,5.78,5.78v4.28c0,3.19-2.59,5.78-5.78,5.78H29.92c-3.19,0-5.78-2.59-5.78-5.78v-4.28      C24.13,122.09,26.72,119.5,29.92,119.5z"></path>
				<path id="Title_1_" class="st1" d="M29.92-60.08h187.58c3.19,0,5.78,2.59,5.78,5.78v3.18c0,3.19-2.59,5.78-5.78,5.78H29.92      c-3.19,0-5.78-2.59-5.78-5.78v-3.18C24.13-57.49,26.72-60.08,29.92-60.08z"></path>
				<path id="Menu" class="st2" d="M276.27-35.01h128.57c3.19,0,5.78,2.59,5.78,5.78v4.49c0,3.19-2.59,5.78-5.78,5.78H276.27      c-3.19,0-5.78-2.59-5.78-5.78v-4.49C270.48-32.42,273.07-35.01,276.27-35.01z M276.27-8.91h88.53c3.19,0,5.78,2.59,5.78,5.78      v4.49c0,3.19-2.59,5.78-5.78,5.78h-88.53c-3.19,0-5.78-2.59-5.78-5.78v-4.49C270.48-6.32,273.07-8.91,276.27-8.91z       M276.27,17.19h108.55c3.19,0,5.78,2.59,5.78,5.78v4.49c0,3.19-2.59,5.78-5.78,5.78H276.27c-3.19,0-5.78-2.59-5.78-5.78v-4.49      C270.48,19.78,273.07,17.19,276.27,17.19z M276.27,43.29h68.51c3.19,0,5.78,2.59,5.78,5.78v4.49c0,3.19-2.59,5.78-5.78,5.78      h-68.51c-3.19,0-5.78-2.59-5.78-5.78v-4.49C270.48,45.88,273.07,43.29,276.27,43.29z"></path>
			</g>
		</g>
		<path id="Top-bar-Copy" class="st2" d="M20.7-53.1c0-10.23,8.29-18.52,18.52-18.52H429.1c10.23,0,18.52,8.29,18.52,18.52v18.52    H20.7V-53.1z"></path>
	</g>
</g>
</svg>